<?xml version="1.0" encoding="UTF-8" standalone="no"?>
<!DOCTYPE svg PUBLIC "-//W3C//DTD SVG 1.1//EN" "http://www.w3.org/Graphics/SVG/1.1/DTD/svg11.dtd">
<svg width="100%" height="100%" viewBox="0 0 250 50" version="1.1" xmlns="http://www.w3.org/2000/svg" xmlns:xlink="http://www.w3.org/1999/xlink" xml:space="preserve" xmlns:serif="http://www.serif.com/" style="fill-rule:evenodd;clip-rule:evenodd;stroke-linejoin:round;stroke-miterlimit:2;">
    <g transform="matrix(1.28452,0,0,1.28452,-42.5296,-27.3436)">
        <g transform="matrix(37.6247,0,0,37.6247,33.9903,53.922)">
            <path d="M0.455,0L0.092,0L0.092,-0.7L0.174,-0.7L0.174,-0.074L0.455,-0.074L0.455,0Z" style="fill-rule:nonzero;"/>
        </g>
        <g transform="matrix(37.6247,0,0,37.6247,51.7004,53.922)">
            <rect x="0.092" y="-0.7" width="0.082" height="0.7" style="fill-rule:nonzero;"/>
        </g>
        <g transform="matrix(37.6247,0,0,37.6247,61.7129,53.922)">
            <path d="M0.615,-0.048C0.545,-0.008 0.467,0.012 0.381,0.012C0.281,0.012 0.2,-0.021 0.138,-0.085C0.077,-0.149 0.046,-0.235 0.046,-0.341C0.046,-0.449 0.08,-0.538 0.149,-0.608C0.217,-0.677 0.304,-0.712 0.409,-0.712C0.485,-0.712 0.549,-0.7 0.601,-0.675L0.601,-0.584C0.544,-0.62 0.477,-0.638 0.4,-0.638C0.321,-0.638 0.257,-0.611 0.207,-0.557C0.157,-0.503 0.132,-0.433 0.132,-0.347C0.132,-0.258 0.155,-0.189 0.202,-0.138C0.248,-0.087 0.311,-0.062 0.391,-0.062C0.446,-0.062 0.493,-0.073 0.533,-0.095L0.533,-0.291L0.38,-0.291L0.38,-0.365L0.615,-0.365L0.615,-0.048Z" style="fill-rule:nonzero;"/>
        </g>
        <g transform="matrix(37.6247,0,0,37.6247,87.5248,53.922)">
            <path d="M0.618,0L0.536,0L0.536,-0.319L0.174,-0.319L0.174,0L0.092,0L0.092,-0.7L0.174,-0.7L0.174,-0.393L0.536,-0.393L0.536,-0.7L0.618,-0.7L0.618,0Z" style="fill-rule:nonzero;"/>
        </g>
        <g transform="matrix(37.6247,0,0,37.6247,114.237,53.922)">
            <path d="M0.506,-0.626L0.304,-0.626L0.304,0L0.222,0L0.222,-0.626L0.02,-0.626L0.02,-0.7L0.506,-0.7L0.506,-0.626Z" style="fill-rule:nonzero;"/>
        </g>
        <g transform="matrix(37.6247,0,0,37.6247,133.949,53.922)">
            <path d="M0.656,0L0.556,0L0.195,-0.558C0.186,-0.572 0.179,-0.587 0.173,-0.602L0.17,-0.602C0.173,-0.587 0.174,-0.555 0.174,-0.506L0.174,0L0.092,0L0.092,-0.7L0.198,-0.7L0.549,-0.151C0.563,-0.128 0.573,-0.112 0.577,-0.104L0.579,-0.104C0.576,-0.124 0.574,-0.159 0.574,-0.207L0.574,-0.7L0.656,-0.7L0.656,0Z" style="fill-rule:nonzero;"/>
        </g>
        <g transform="matrix(37.6247,0,0,37.6247,162.095,53.922)">
            <rect x="0.092" y="-0.7" width="0.082" height="0.7" style="fill-rule:nonzero;"/>
        </g>
        <g transform="matrix(37.6247,0,0,37.6247,172.107,53.922)">
            <path d="M0.656,0L0.556,0L0.195,-0.558C0.186,-0.572 0.179,-0.587 0.173,-0.602L0.17,-0.602C0.173,-0.587 0.174,-0.555 0.174,-0.506L0.174,0L0.092,0L0.092,-0.7L0.198,-0.7L0.549,-0.151C0.563,-0.128 0.573,-0.112 0.577,-0.104L0.579,-0.104C0.576,-0.124 0.574,-0.159 0.574,-0.207L0.574,-0.7L0.656,-0.7L0.656,0Z" style="fill-rule:nonzero;"/>
        </g>
        <g transform="matrix(37.6247,0,0,37.6247,200.252,53.922)">
            <path d="M0.615,-0.048C0.545,-0.008 0.467,0.012 0.381,0.012C0.281,0.012 0.2,-0.021 0.138,-0.085C0.077,-0.149 0.046,-0.235 0.046,-0.341C0.046,-0.449 0.08,-0.538 0.149,-0.608C0.217,-0.677 0.304,-0.712 0.409,-0.712C0.485,-0.712 0.549,-0.7 0.601,-0.675L0.601,-0.584C0.544,-0.62 0.477,-0.638 0.4,-0.638C0.321,-0.638 0.257,-0.611 0.207,-0.557C0.157,-0.503 0.132,-0.433 0.132,-0.347C0.132,-0.258 0.155,-0.189 0.202,-0.138C0.248,-0.087 0.311,-0.062 0.391,-0.062C0.446,-0.062 0.493,-0.073 0.533,-0.095L0.533,-0.291L0.38,-0.291L0.38,-0.365L0.615,-0.365L0.615,-0.048Z" style="fill-rule:nonzero;"/>
        </g>
    </g>
</svg>
